<svg xmlns="http://www.w3.org/2000/svg" x="0px" y="0px" width="100" height="100" viewBox="0 0 128 128"
style="fill:#737373;">
    <path d="M 41.800781 37 C 26.800781 37 14.5 49.1 14.5 64 C 14.5 78.9 26.700781 91 41.800781 91 C 52.700781 91 62.1 84.600391 66.5 75.400391 L 70.099609 75.400391 C 71.799609 75.400391 73.199219 72.5 73.199219 72.5 C 74.399219 69.9 75 67 75 64 C 75 62.1 74.599219 60.299609 74.199219 58.599609 L 101.40039 58.599609 L 106.30078 62.5 L 100.90039 69.400391 L 96.300781 69.400391 C 94.600781 69.400391 93.300781 70.700391 93.300781 72.400391 C 93.300781 74.100391 94.600781 75.400391 96.300781 75.400391 L 102.40039 75.400391 C 103.30039 75.400391 104.20078 74.999219 104.80078 74.199219 L 112.90039 63.800781 C 113.90039 62.500781 113.70039 60.699219 112.40039 59.699219 L 104.30078 53.300781 C 103.80078 52.900781 103.10039 52.699219 102.40039 52.699219 L 66.400391 52.699219 C 62.100391 43.399219 52.700781 37 41.800781 37 z M 41.800781 43 C 53.600781 43 63 52.4 63 64 C 63 75.6 53.500781 85 41.800781 85 C 30.000781 85 20.5 75.6 20.5 64 C 20.5 52.4 30.000781 43 41.800781 43 z M 33 55 C 28 55 23.900391 59 23.900391 64 C 23.900391 69 28 73 33 73 C 38 73 42.099609 69 42.099609 64 C 42.099609 59 38 55 33 55 z M 33 61 C 34.7 61 36.099609 62.3 36.099609 64 C 36.099609 65.7 34.7 67 33 67 C 31.3 67 29.900391 65.7 29.900391 64 C 29.900391 62.3 31.3 61 33 61 z M 80.099609 69.400391 C 78.399609 69.400391 77.099609 70.700391 77.099609 72.400391 C 77.099609 74.100391 78.399609 75.400391 80.099609 75.400391 L 86.199219 75.400391 C 87.899219 75.400391 89.199219 74.100391 89.199219 72.400391 C 89.199219 70.700391 87.899219 69.400391 86.199219 69.400391 L 80.099609 69.400391 z"></path>
</svg>